<svg width="21" height="21" viewBox="0 0 21 21" fill="none" xmlns="http://www.w3.org/2000/svg">
<path d="M8.11236 17.3965V14.8484C8.11236 14.1979 8.64352 13.6706 9.29874 13.6706H11.6939C12.0085 13.6706 12.3103 13.7947 12.5328 14.0156C12.7553 14.2364 12.8803 14.536 12.8803 14.8484V17.3965C12.8783 17.6669 12.9851 17.9269 13.177 18.1188C13.3689 18.3107 13.6301 18.4187 13.9025 18.4187H15.5366C16.2997 18.4206 17.0323 18.1211 17.5727 17.586C18.113 17.051 18.4167 16.3245 18.4167 15.5669V8.30773C18.4167 7.69573 18.1434 7.11522 17.6706 6.72257L12.1117 2.31524C11.1448 1.54248 9.7593 1.56743 8.8212 2.3745L3.38922 6.72257C2.89399 7.10364 2.598 7.68588 2.58337 8.30773V15.5595C2.58337 17.1386 3.87286 18.4187 5.46352 18.4187H7.06028C7.62606 18.4187 8.08587 17.9655 8.08997 17.4039L8.11236 17.3965Z" fill="#FE0000"/>
</svg>
