<svg width="20" height="21" viewBox="0 0 20 21" fill="none" xmlns="http://www.w3.org/2000/svg">
<path d="M14.6651 12.9907H13.7383L13.4098 12.674C14.8176 11.0315 15.545 8.79083 15.1461 6.40934C14.5947 3.14798 11.873 0.543589 8.58819 0.144719C3.62577 -0.465319 -0.550646 3.71109 0.0593914 8.67351C0.458262 11.9583 3.06265 14.68 6.32401 15.2314C8.7055 15.6303 10.9462 14.9029 12.5886 13.4952L12.9054 13.8236V14.7504L17.8913 19.7363C18.3723 20.2173 19.1583 20.2173 19.6393 19.7363C20.1202 19.2553 20.1202 18.4693 19.6393 17.9883L14.6651 12.9907ZM7.62621 12.9907C4.70506 12.9907 2.34703 10.6327 2.34703 7.71153C2.34703 4.79039 4.70506 2.43236 7.62621 2.43236C10.5473 2.43236 12.9054 4.79039 12.9054 7.71153C12.9054 10.6327 10.5473 12.9907 7.62621 12.9907Z" fill="#C3C3C3"/>
</svg>
