<svg width="15" height="12" viewBox="0 0 15 12" fill="none" xmlns="http://www.w3.org/2000/svg">
<path fill-rule="evenodd" clip-rule="evenodd" d="M2.41669 0.41864C1.31212 0.41864 0.416687 1.31407 0.416687 2.41864V2.99733C0.416687 3.22858 0.563758 3.43017 0.762103 3.54907C1.53721 4.01368 2.06952 4.9749 2.06952 6.08531C2.06952 7.19572 1.53721 8.15694 0.762103 8.62155C0.563758 8.74044 0.416687 8.94203 0.416687 9.17328V9.75197C0.416687 10.8565 1.31212 11.752 2.41669 11.752H12.5834C13.6879 11.752 14.5834 10.8565 14.5834 9.75198V9.17321C14.5834 8.94198 14.4363 8.74039 14.238 8.6215C13.4629 8.15687 12.9306 7.19568 12.9306 6.08531C12.9306 4.97494 13.4629 4.01375 14.238 3.54912C14.4363 3.43022 14.5834 3.22864 14.5834 2.9974V2.41864C14.5834 1.31407 13.6879 0.41864 12.5834 0.41864H2.41669ZM8.87502 1.12697V3.60614C8.87502 4.02035 9.21081 4.35614 9.62502 4.35614C10.0392 4.35614 10.375 4.02035 10.375 3.60614V1.12697H8.87502ZM10.375 8.56447C10.375 8.15026 10.0392 7.81447 9.62502 7.81447C9.21081 7.81447 8.87502 8.15026 8.87502 8.56447V11.0436H10.375V8.56447Z" fill="#C3C3C3"/>
</svg>
